<?xml version="1.0" standalone="no"?>
<!DOCTYPE svg PUBLIC "-//W3C//DTD SVG 20010904//EN"
 "http://www.w3.org/TR/2001/REC-SVG-20010904/DTD/svg10.dtd">
<svg version="1.0" xmlns="http://www.w3.org/2000/svg"
 width="512.000000pt" height="512.000000pt" viewBox="0 0 512.000000 512.000000"
 preserveAspectRatio="xMidYMid meet">
<metadata>
Created by potrace 1.14, written by Peter Selinger 2001-2017
</metadata>
<g transform="translate(0.000000,512.000000) scale(0.100000,-0.100000)"
fill="#000000" stroke="none">
<path d="M2409 5116 c-2 -2 -30 -6 -62 -10 -112 -12 -324 -62 -402 -96 -11 -5
-53 -22 -93 -39 -437 -178 -815 -590 -966 -1053 -66 -201 -89 -344 -90 -558
-1 -246 38 -450 125 -670 111 -278 330 -565 564 -740 193 -144 225 -193 233
-356 l5 -102 -37 -17 c-51 -24 -112 -97 -132 -157 -20 -62 -14 -154 15 -214
11 -22 39 -58 63 -80 39 -36 62 -49 122 -68 22 -7 18 -14 -10 -19 -43 -9 -77
-29 -122 -74 -80 -81 -102 -188 -62 -296 37 -99 143 -177 241 -177 41 0 50 -4
72 -33 73 -95 193 -199 300 -257 224 -122 498 -129 737 -19 114 53 255 168
333 270 25 33 33 37 85 42 152 13 254 133 248 290 -3 76 -11 96 -64 165 -32
41 -114 92 -147 92 -8 0 -15 5 -15 11 0 5 4 8 8 5 16 -9 107 41 145 80 123
127 89 356 -65 435 l-38 19 0 83 c0 162 38 229 195 346 124 91 310 278 391
391 179 249 291 530 330 830 19 152 7 418 -27 575 -6 28 -12 59 -15 70 -2 11
-15 54 -28 95 -153 476 -483 856 -928 1069 -87 41 -292 113 -358 126 -19 3
-71 13 -115 21 -69 14 -425 29 -436 20z"/>
<path d="M438 4775 c-85 -29 -130 -126 -98 -211 14 -36 305 -329 346 -349 102
-48 221 20 229 132 2 29 -3 60 -12 78 -19 38 -298 321 -338 342 -39 21 -83 24
-127 8z"/>
<path d="M4564 4770 c-56 -25 -338 -314 -353 -361 -29 -90 31 -191 121 -205
83 -14 101 -3 265 159 85 84 163 169 174 189 69 134 -70 281 -207 218z"/>
<path d="M107 3496 c-49 -18 -64 -32 -89 -80 -36 -70 -11 -158 59 -206 36 -24
38 -25 273 -25 236 0 237 0 273 25 41 27 77 91 77 133 0 64 -43 126 -105 153
-44 18 -435 18 -488 0z"/>
<path d="M4529 3496 c-72 -25 -109 -84 -105 -163 3 -56 23 -88 75 -124 34 -23
39 -24 270 -24 228 0 237 1 273 23 50 31 82 98 75 158 -8 57 -36 97 -90 122
-38 19 -63 21 -252 21 -148 0 -221 -4 -246 -13z"/>
<path d="M710 2487 c-47 -12 -354 -314 -371 -365 -25 -74 6 -155 74 -197 41
-24 117 -23 158 3 56 35 317 305 334 346 50 120 -66 247 -195 213z"/>
<path d="M4331 2489 c-99 -21 -158 -136 -113 -224 18 -36 284 -308 328 -335
128 -80 288 54 233 197 -10 28 -269 296 -322 335 -36 26 -83 36 -126 27z"/>
</g>
</svg>
