<?xml version="1.0" standalone="no"?>
<!DOCTYPE svg PUBLIC "-//W3C//DTD SVG 20010904//EN"
 "http://www.w3.org/TR/2001/REC-SVG-20010904/DTD/svg10.dtd">
<svg version="1.0" xmlns="http://www.w3.org/2000/svg"
 width="512.000000pt" height="512.000000pt" viewBox="0 0 512.000000 512.000000"
 preserveAspectRatio="xMidYMid meet">

<g transform="translate(0.000000,512.000000) scale(0.100000,-0.100000)"
fill="#000000" stroke="none">
<path d="M3624 5110 c-141 -26 -297 -107 -404 -210 -152 -147 -230 -334 -230
-552 0 -122 22 -214 82 -337 44 -92 61 -115 141 -195 52 -52 120 -108 157
-129 134 -77 311 -114 466 -96 185 21 329 91 465 229 71 71 94 103 133 181 69
140 90 235 83 384 -4 98 -10 136 -34 207 -83 243 -259 413 -508 494 -90 29
-260 40 -351 24z m251 -175 c207 -43 377 -194 445 -395 31 -89 38 -233 16
-320 -55 -219 -221 -390 -432 -445 -75 -19 -223 -19 -299 0 -208 55 -382 232
-431 441 -25 108 -15 247 25 349 107 274 392 429 676 370z"/>
<path d="M1620 4699 c-62 -12 -115 -35 -166 -70 -61 -42 -822 -896 -857 -962
-90 -169 -21 -380 152 -464 48 -24 68 -28 141 -28 72 0 94 4 145 28 33 16 73
40 89 55 16 15 154 168 308 340 153 171 283 312 288 312 5 0 137 -115 294
-255 157 -140 299 -261 315 -270 45 -23 119 -19 162 8 42 26 268 277 293 324
20 40 21 105 0 148 -15 32 -743 691 -842 762 -87 63 -221 93 -322 72z m185
-189 c29 -13 617 -523 819 -711 7 -6 -207 -259 -219 -259 -2 0 -136 118 -297
261 -161 144 -307 268 -325 275 -47 20 -94 17 -141 -8 -28 -16 -138 -132 -338
-357 -308 -346 -335 -370 -409 -371 -45 0 -116 40 -142 79 -29 43 -32 133 -5
173 10 15 191 221 402 458 386 434 413 460 495 481 40 10 111 1 160 -21z"/>
<path d="M2944 3606 c-21 -9 -487 -525 -1389 -1537 -1037 -1164 -1364 -1537
-1384 -1579 -22 -47 -26 -68 -26 -150 0 -84 3 -102 28 -152 33 -67 90 -121
166 -157 46 -21 70 -26 137 -26 73 0 88 4 150 35 67 34 89 58 1244 1355 647
726 1181 1320 1187 1320 7 0 158 -130 338 -290 349 -311 399 -347 514 -367
116 -20 267 24 353 103 20 19 208 227 417 462 434 489 436 492 436 627 0 71
-4 94 -26 141 -34 73 -96 134 -168 167 -47 22 -70 27 -141 26 -88 0 -132 -13
-198 -57 -18 -12 -166 -171 -329 -354 l-296 -332 -37 32 c-20 18 -209 185
-419 372 -210 187 -396 348 -414 358 -38 20 -100 22 -143 3z m520 -556 c213
-190 401 -353 419 -363 39 -22 122 -19 161 6 14 10 152 160 307 335 155 174
295 329 311 343 134 119 343 -21 274 -184 -12 -30 -755 -873 -800 -908 -78
-61 -187 -72 -269 -29 -25 14 -195 158 -377 320 -189 168 -348 303 -372 313
-50 23 -110 17 -156 -16 -17 -12 -560 -617 -1207 -1344 -1236 -1389 -1203
-1353 -1283 -1353 -47 0 -115 41 -139 85 -25 45 -29 113 -10 158 7 16 615 705
1351 1532 l1339 1504 32 -27 c18 -15 206 -182 419 -372z"/>
<path d="M39 2887 c-46 -35 -50 -88 -10 -128 l29 -29 362 0 c379 0 408 3 424
45 13 35 6 76 -19 100 l-24 25 -373 0 c-277 -1 -377 -4 -389 -13z"/>
<path d="M369 2531 c-38 -38 -38 -74 0 -112 l29 -29 372 0 371 0 24 25 c17 16
25 35 25 60 0 25 -8 44 -25 60 l-24 25 -371 0 -372 0 -29 -29z"/>
<path d="M2883 2248 c-49 -28 -288 -293 -308 -343 -19 -44 -19 -75 1 -125 13
-33 76 -93 315 -307 296 -263 298 -266 281 -287 -9 -12 -138 -158 -287 -324
-322 -359 -340 -388 -340 -521 1 -71 5 -96 27 -142 88 -191 331 -257 499 -137
69 49 821 897 857 967 76 144 67 296 -24 436 -41 63 -837 774 -886 792 -50 18
-91 15 -135 -9z m474 -504 c442 -393 448 -400 448 -519 -1 -52 -6 -80 -22
-110 -23 -43 -771 -886 -814 -918 -42 -30 -109 -33 -163 -8 -74 36 -109 117
-86 200 9 35 66 104 307 374 163 183 304 346 314 362 25 40 25 120 0 162 -11
17 -151 148 -311 291 -160 143 -291 264 -290 269 3 13 211 243 220 243 5 0
183 -155 397 -346z"/>
</g>
</svg>
